<svg id="Layer_1" data-name="Layer 1" xmlns="http://www.w3.org/2000/svg" viewBox="0 0 773.17 317"><defs><style>.cls-1{fill:#231f20;}.cls-2{fill:#00ffd8;}</style></defs><title>logo_black_green</title><path class="cls-1" d="M64.11,274.06c5.47,7.52,11.28,10.6,19.14,10.6,15.38,0,26-12,30.77-35.2L149.57,71h36.23L149.92,250.47c-4.79,25-12.31,40.33-22.22,49.56C114,312.68,99.33,317.13,82.23,317.13c-23.24,0-37.6-8.88-45.8-22.56Z"/><path class="cls-1" d="M238.77,85c12-11.62,25.64-16.75,45.12-16.75,21.88,0,35.21,7.52,42.73,20.17,6.16,9.57,8.2,18.12,8.2,32.47,0,15-3.76,38.63-10.6,71.78-15,74.18-21.54,92.29-37.6,107.68C275,312,261.34,317.13,241.85,317.13c-22.22,0-35.55-7.52-43.07-20.16-5.81-9.58-7.86-18.12-7.86-32.47,0-15,3.76-38.63,10.26-71.79C216.56,118.52,223.05,100.41,238.77,85Zm59.82,36.92c0-12.31-4.44-21.19-18.12-21.19a23,23,0,0,0-17.09,7.18c-8.89,8.89-14,25-26,84.77-6.16,30.77-10.6,56.4-10.6,70.76,0,12.31,4.44,21.19,18.12,21.19A23,23,0,0,0,262,277.47c8.89-8.88,14-25,26-84.77C294.15,161.94,298.6,136.3,298.6,121.94Z"/><path class="cls-1" d="M386.58,71h36.23L385.9,254.91a55.67,55.67,0,0,0-1,10.6c0,12.3,6.49,19.14,18.46,19.14,13.33,0,24.27-9.91,27.69-27.68L467.93,71h36.24l-36.92,186.3c-4.1,20.16-11.28,33.83-23.59,44.78-11.28,10.26-25,15-45.12,15-16.75,0-29.39-5.12-38.28-14.7-7.86-8.2-11.62-19.48-11.62-33.15a85.83,85.83,0,0,1,1.71-17.43Z"/><path class="cls-1" d="M542.93,71h36.23l-42,210.91H598l-6.5,32.47H494.39Z"/><path class="cls-1" d="M676.08,71h97.08l-6.5,32.47H705.83l-14.36,72.13h52.3l-6.49,32.13H685l-14.7,74.18h60.84l-6.49,32.47H627.55Z"/><polygon class="cls-2" points="107.88 0 51.24 0 0 104.28 38.66 104.28 0 200.48 107.88 71.02 61.83 71.02 107.88 0"/></svg>